<svg width="28" height="28" viewBox="0 0 28 28" fill="none" xmlns="http://www.w3.org/2000/svg">
<g id="bxs:coffee-bean">
<path id="Vector" d="M7 21C8.67791 20.7508 10.2103 19.9067 11.3176 18.6217C12.4249 17.3366 13.0333 15.6963 13.0317 14C13.0401 11.8706 13.8126 9.81503 15.2085 8.20709C16.6045 6.59915 18.5313 5.54568 20.6383 5.23831L23.66 4.80664C23.5783 4.71331 23.5083 4.61998 23.415 4.52664C19.6117 0.723311 12.3083 1.86664 7.08166 7.06998C2.66 11.55 1.16666 17.5 3.22 21.5366L7 21Z" fill="#4D2212"/>
<path id="Vector_2" d="M14.8517 13.9999C14.844 16.1289 14.0736 18.1846 12.6802 19.7942C11.2868 21.4039 9.36259 22.4608 7.25667 22.7733L4.38667 23.1816L4.56167 23.3799C8.36501 27.1833 15.6683 26.0516 20.895 20.8483C25.2933 16.4616 26.8333 10.4999 24.7917 6.52161L20.895 7.08161C19.2278 7.3238 17.7022 8.15432 16.5939 9.42312C15.4855 10.6919 14.8676 12.3153 14.8517 13.9999Z" fill="#4D2212"/>
</g>
</svg>
