<svg width="22" height="22" viewBox="0 0 22 22" fill="none" xmlns="http://www.w3.org/2000/svg">
<g id="bxs:coffee-bean">
<path id="Vector" d="M5.5 16.5C6.81836 16.3042 8.0224 15.641 8.89241 14.6313C9.76243 13.6216 10.2404 12.3328 10.2392 11C10.2458 9.3269 10.8527 7.71179 11.9496 6.44841C13.0464 5.18503 14.5603 4.35731 16.2158 4.1158L18.59 3.77663C18.5258 3.7033 18.4708 3.62996 18.3975 3.55663C15.4092 0.568298 9.67083 1.46663 5.56416 5.55497C2.09 9.07497 0.916663 13.75 2.53 16.9216L5.5 16.5Z" fill="#59B675"/>
<path id="Vector_2" d="M11.6692 11C11.6632 12.6727 11.0578 14.2879 9.96301 15.5526C8.86817 16.8174 7.35631 17.6478 5.70166 17.8933L3.44666 18.2141L3.58416 18.37C6.5725 21.3583 12.3108 20.4691 16.4175 16.3808C19.8733 12.9341 21.0833 8.24998 19.4792 5.12415L16.4175 5.56415C15.1075 5.75444 13.9089 6.407 13.038 7.40391C12.1672 8.40082 11.6817 9.67634 11.6692 11Z" fill="#59B675"/>
</g>
</svg>
