<svg width="22" height="22" viewBox="0 0 22 22" fill="none" xmlns="http://www.w3.org/2000/svg">
<g id="bxs:coffee-bean">
<path id="Vector" d="M5.5 16.5001C6.81836 16.3043 8.0224 15.6411 8.89241 14.6314C9.76243 13.6217 10.2404 12.3329 10.2392 11.0001C10.2458 9.32702 10.8527 7.71191 11.9496 6.44853C13.0464 5.18515 14.5603 4.35743 16.2158 4.11592L18.59 3.77675C18.5258 3.70342 18.4708 3.63009 18.3975 3.55675C15.4092 0.56842 9.67083 1.46675 5.56416 5.55509C2.09 9.07509 0.916663 13.7501 2.53 16.9218L5.5 16.5001Z" fill="#F6A133"/>
<path id="Vector_2" d="M11.6692 11.0001C11.6632 12.6729 11.0578 14.2881 9.96301 15.5528C8.86817 16.8175 7.35631 17.6479 5.70166 17.8934L3.44666 18.2143L3.58416 18.3701C6.5725 21.3584 12.3108 20.4693 16.4175 16.3809C19.8733 12.9343 21.0833 8.2501 19.4792 5.12427L16.4175 5.56427C15.1075 5.75456 13.9089 6.40712 13.038 7.40403C12.1672 8.40095 11.6817 9.67646 11.6692 11.0001Z" fill="#F6A133"/>
</g>
</svg>
