<svg width="15" height="15" viewBox="0 0 15 15" fill="none" xmlns="http://www.w3.org/2000/svg">
<g id="bxs:coffee-bean">
<path id="Vector" d="M3.75 11.25C4.64888 11.1165 5.46982 10.6643 6.06301 9.97589C6.65621 9.28746 6.98211 8.40871 6.98125 7.49997C6.98577 6.35925 7.39959 5.25803 8.14743 4.39664C8.89528 3.53524 9.92746 2.97088 11.0563 2.80622L12.675 2.57497C12.6313 2.52497 12.5938 2.47497 12.5438 2.42497C10.5063 0.387471 6.59375 0.99997 3.79375 3.78747C1.425 6.18747 0.625001 9.37497 1.725 11.5375L3.75 11.25Z" fill="white"/>
<path id="Vector_2" d="M7.95625 7.50002C7.95216 8.64054 7.53944 9.74182 6.79296 10.6041C6.04648 11.4664 5.01567 12.0326 3.8875 12.2L2.35 12.4188L2.44375 12.525C4.48125 14.5625 8.39375 13.9563 11.1937 11.1688C13.55 8.81877 14.375 5.62502 13.2812 3.49377L11.1937 3.79377C10.3006 3.92352 9.48331 4.36844 8.88957 5.04816C8.29582 5.72787 7.96477 6.59754 7.95625 7.50002Z" fill="white"/>
</g>
</svg>
