<svg width="15" height="15" viewBox="0 0 15 15" fill="none" xmlns="http://www.w3.org/2000/svg">
<g id="heroicons:arrow-top-right-on-square-20-solid">
<g id="Group">
<path id="Vector" fill-rule="evenodd" clip-rule="evenodd" d="M3.1875 4.125C3.03832 4.125 2.89524 4.18426 2.78975 4.28975C2.68426 4.39524 2.625 4.53832 2.625 4.6875V11.0625C2.625 11.373 2.877 11.625 3.1875 11.625H9.5625C9.71168 11.625 9.85476 11.5657 9.96025 11.4602C10.0657 11.3548 10.125 11.2117 10.125 11.0625V8.0625C10.125 7.91332 10.1843 7.77024 10.2898 7.66475C10.3952 7.55926 10.5383 7.5 10.6875 7.5C10.8367 7.5 10.9798 7.55926 11.0852 7.66475C11.1907 7.77024 11.25 7.91332 11.25 8.0625V11.0625C11.25 11.5101 11.0722 11.9393 10.7557 12.2557C10.4393 12.5722 10.0101 12.75 9.5625 12.75H3.1875C2.73995 12.75 2.31072 12.5722 1.99426 12.2557C1.67779 11.9393 1.5 11.5101 1.5 11.0625V4.6875C1.5 4.23995 1.67779 3.81073 1.99426 3.49426C2.31072 3.17779 2.73995 3 3.1875 3H6.9375C7.08668 3 7.22976 3.05926 7.33525 3.16475C7.44074 3.27024 7.5 3.41332 7.5 3.5625C7.5 3.71168 7.44074 3.85476 7.33525 3.96025C7.22976 4.06574 7.08668 4.125 6.9375 4.125H3.1875Z" fill="#4D2212"/>
<path id="Vector_2" fill-rule="evenodd" clip-rule="evenodd" d="M4.6455 9.56475C4.69507 9.6196 4.75496 9.66414 4.82175 9.69583C4.88854 9.72752 4.96093 9.74573 5.03476 9.74942C5.1086 9.75311 5.18244 9.74221 5.25206 9.71735C5.32168 9.69248 5.38571 9.65413 5.4405 9.6045L12.375 3.33V5.4375C12.375 5.58668 12.4343 5.72976 12.5398 5.83525C12.6452 5.94074 12.7883 6 12.9375 6C13.0867 6 13.2298 5.94074 13.3352 5.83525C13.4407 5.72976 13.5 5.58668 13.5 5.4375V2.0625C13.5 1.91332 13.4407 1.77024 13.3352 1.66475C13.2298 1.55926 13.0867 1.5 12.9375 1.5H9.5625C9.41332 1.5 9.27024 1.55926 9.16475 1.66475C9.05926 1.77024 9 1.91332 9 2.0625C9 2.21168 9.05926 2.35476 9.16475 2.46025C9.27024 2.56574 9.41332 2.625 9.5625 2.625H11.4773L4.68525 8.7705C4.6304 8.82007 4.58586 8.87996 4.55417 8.94675C4.52248 9.01354 4.50427 9.08592 4.50058 9.15976C4.49689 9.2336 4.50779 9.30743 4.53265 9.37706C4.55752 9.44668 4.59587 9.50996 4.6455 9.56475Z" fill="#4D2212"/>
</g>
</g>
</svg>
