<svg width="14" height="14" viewBox="0 0 14 14" fill="none" xmlns="http://www.w3.org/2000/svg">
<g id="heroicons:arrow-top-right-on-square-20-solid">
<g id="Group">
<path id="Vector" fill-rule="evenodd" clip-rule="evenodd" d="M2.97499 3.85005C2.83576 3.85005 2.70222 3.90536 2.60376 4.00382C2.50531 4.10227 2.44999 4.23581 2.44999 4.37505V10.325C2.44999 10.6148 2.68519 10.85 2.97499 10.85H8.92499C9.06423 10.85 9.19777 10.7947 9.29622 10.6963C9.39468 10.5978 9.44999 10.4643 9.44999 10.325V7.52505C9.44999 7.38581 9.50531 7.25227 9.60376 7.15382C9.70222 7.05536 9.83575 7.00005 9.97499 7.00005C10.1142 7.00005 10.2478 7.05536 10.3462 7.15382C10.4447 7.25227 10.5 7.38581 10.5 7.52505V10.325C10.5 10.7428 10.3341 11.1434 10.0387 11.4387C9.74332 11.7341 9.34271 11.9 8.92499 11.9H2.97499C2.55728 11.9 2.15667 11.7341 1.8613 11.4387C1.56593 11.1434 1.39999 10.7428 1.39999 10.325V4.37505C1.39999 3.95733 1.56593 3.55673 1.8613 3.26136C2.15667 2.96599 2.55728 2.80005 2.97499 2.80005H6.47499C6.61423 2.80005 6.74777 2.85536 6.84622 2.95382C6.94468 3.05227 6.99999 3.18581 6.99999 3.32505C6.99999 3.46429 6.94468 3.59782 6.84622 3.69628C6.74777 3.79474 6.61423 3.85005 6.47499 3.85005H2.97499Z" fill="white"/>
<path id="Vector_2" fill-rule="evenodd" clip-rule="evenodd" d="M4.3358 8.92712C4.38206 8.97832 4.43796 9.01989 4.5003 9.04947C4.56264 9.07904 4.6302 9.09604 4.69911 9.09948C4.76803 9.10293 4.83694 9.09276 4.90192 9.06955C4.9669 9.04634 5.02667 9.01055 5.0778 8.96422L11.55 3.10802V5.07502C11.55 5.21426 11.6053 5.3478 11.7038 5.44626C11.8022 5.54471 11.9358 5.60002 12.075 5.60002C12.2142 5.60002 12.3478 5.54471 12.4462 5.44626C12.5447 5.3478 12.6 5.21426 12.6 5.07502V1.92502C12.6 1.78579 12.5447 1.65225 12.4462 1.55379C12.3478 1.45534 12.2142 1.40002 12.075 1.40002H8.925C8.78577 1.40002 8.65223 1.45534 8.55377 1.55379C8.45532 1.65225 8.4 1.78579 8.4 1.92502C8.4 2.06426 8.45532 2.1978 8.55377 2.29626C8.65223 2.39471 8.78577 2.45002 8.925 2.45002H10.7121L4.3729 8.18582C4.32171 8.23208 4.28014 8.28798 4.25056 8.35032C4.22099 8.41266 4.20399 8.48022 4.20055 8.54913C4.1971 8.61805 4.20727 8.68696 4.23048 8.75194C4.25369 8.81692 4.28948 8.87599 4.3358 8.92712Z" fill="white"/>
</g>
</g>
</svg>
